<svg width="1439" height="900" viewBox="0 0 1439 900" fill="none" xmlns="http://www.w3.org/2000/svg">
<g clip-path="url(#clip0_21_2)">
<rect width="900" height="1440" transform="matrix(0 1 -1 0 1440 0)" fill="black"/>
<path d="M1304.43 169.228L1030.15 512.485L969.678 354.184L917.5 525.499L685.083 118.048L815 560.999L606 443.547L712.5 643.499L444 616.647L685.083 769.999L416.5 856.636L934.579 856.636L956.869 1312.6L1092.58 830.613L1585.4 1110.65L1238.33 742.55L1588.61 501.57L1238.33 587.142L1325.76 443.547L1158.06 514.058L1304.43 169.228Z" fill="#D1293C"/>
<path d="M-263.903 540.136L261.802 -64.618L443.704 93.5068C506.847 148.397 547.282 187.257 565.008 210.087C582.733 232.917 592.976 258.752 595.738 287.591C598.728 316.166 593.726 347.534 580.73 381.693C568.227 415.818 549.46 447.28 524.426 476.077C471.603 536.843 416.415 569.115 358.862 572.891C339.206 685.68 281.815 805.327 186.691 931.83L-2.3446 767.505L2.47838 761.957C64.2584 690.887 104.603 630.869 123.511 581.904C142.42 532.939 139.589 497.777 115.018 476.418L112.641 474.351L-82.0009 698.261L-263.903 540.136ZM338.701 220.701L335.531 217.945L234.249 334.457L239.004 338.591C256.706 353.979 273.653 360.362 289.847 357.741C306.041 355.119 323.21 343.373 341.354 322.501C374.196 284.721 373.312 250.787 338.701 220.701Z" fill="white"/>
<path d="M-161.646 649.771L223.007 139.32L249.914 103.613L512.685 301.626L434.999 404.719L368.58 492.86L343.203 473.737L265.436 415.135L172.502 901.569L-161.646 649.771Z" fill="white"/>
<rect x="361.34" y="201.044" width="78.2116" height="80.1669" transform="rotate(37 361.34 201.044)" stroke="white" stroke-width="21.5082"/>
<rect x="267.205" y="325.968" width="80.1669" height="164.244" transform="rotate(-53 267.205 325.968)" stroke="white" stroke-width="21.5082"/>
<rect x="425.365" y="249.289" width="78.2116" height="80.1669" transform="rotate(37 425.365 249.289)" stroke="white" stroke-width="21.5082"/>
<rect x="300.44" y="155.153" width="72.3458" height="125.139" transform="rotate(37 300.44 155.153)" stroke="white" stroke-width="21.5082"/>
<rect x="236.416" y="106.908" width="76.2563" height="125.139" transform="rotate(37 236.416 106.908)" stroke="white" stroke-width="21.5082"/>
<path d="M574.174 497.096L543.819 429.742C541.376 424.323 534.019 423.502 530.442 428.249L493.554 477.201C490.228 481.615 492.405 487.993 497.736 489.452L564.979 507.854C571.36 509.6 576.892 503.128 574.174 497.096Z" fill="white" stroke="white" stroke-width="1.95529"/>
<path d="M501.674 19.9342C484.334 24.8966 446.727 17.5276 419.86 10.5691C413.12 8.82343 407.625 15.7836 411.606 21.4958C441.206 63.9695 499.67 111.45 528.655 95.8522C561.372 78.2453 554.782 4.73547 501.674 19.9342Z" fill="white" stroke="white" stroke-width="1.95529"/>
<rect x="-119" width="363" height="346" fill="white"/>
<path d="M244 761.819H1051.79L1532.5 414" stroke="white" stroke-width="37"/>
<path d="M244 674.871H1039.71L1511 335" stroke="white" stroke-width="37"/>
<path d="M1036 570L1046.69 919.096" stroke="white" stroke-width="37" stroke-linecap="round"/>
<path d="M1464 552L1050.5 831L1014 937.213H1557L1464 552Z" fill="white" stroke="white" stroke-width="0.74266"/>
<path d="M304.5 983.5C345.7 815.9 359.167 644.333 357.5 571.5L-49.5 448.5L-268 983.5C-94.3333 1053.33 263.3 1151.1 304.5 983.5Z" fill="white" stroke="white"/>
<rect x="299" y="830" width="756" height="286" fill="white"/>
</g>
<defs>
<clipPath id="clip0_21_2">
<rect width="900" height="1440" fill="white" transform="matrix(0 1 -1 0 1440 0)"/>
</clipPath>
</defs>
</svg>
