<svg width="1416" height="236" viewBox="0 0 1416 236" fill="none" xmlns="http://www.w3.org/2000/svg">
<g clip-path="url(#clip0_153_93)">
<g clip-path="url(#clip1_153_93)">
<path d="M49.4684 254V63.4466H106.784C126.68 63.4466 140 64.1126 146.743 65.4446C153.486 66.7765 159.355 69.815 164.35 74.5601C169.345 79.222 173.341 85.6321 176.338 93.7903C179.418 101.865 180.958 110.44 180.958 119.514C180.958 138.661 176.088 153.062 166.348 162.719C180.417 186.028 188.783 216.455 191.447 254H131.883V252.252C131.883 229.858 129.761 212.793 125.515 201.055C121.269 189.317 115.276 183.448 107.534 183.448H106.784V254H49.4684ZM107.783 102.656H106.784V139.368H108.283C113.86 139.368 117.898 137.87 120.395 134.873C122.893 131.876 124.141 127.089 124.141 120.513C124.141 108.608 118.689 102.656 107.783 102.656Z" fill="black"/>
<path d="M78.1146 254.341V103.543V92.9945H151.428V123.45V149.489H144.348H122.651L171.342 254.341H78.1146Z" fill="black"/>
<path d="M144.374 150.652C151.813 150.652 152.278 146.002 152.743 139.957" stroke="black" stroke-width="2.32487"/>
<rect x="113.22" y="95.5517" width="18.599" height="17.669" rx="5.34721" stroke="black" stroke-width="5.11472"/>
<rect x="113.22" y="132.75" width="19.064" height="39.0579" rx="5.34721" transform="rotate(-90 113.22 132.75)" stroke="black" stroke-width="5.11472"/>
<rect x="132.283" y="95.5517" width="18.599" height="17.669" rx="5.34721" stroke="black" stroke-width="5.11472"/>
<rect x="95.0862" y="95.5517" width="17.2041" height="29.7584" rx="5.34721" stroke="black" stroke-width="5.11472"/>
<rect x="76.0215" y="95.5518" width="18.134" height="29.7584" rx="5.34721" stroke="black" stroke-width="5.11472"/>
<path d="M196.009 121.32L180.605 112.873C179.366 112.193 177.851 113.09 177.851 114.504V129.08C177.851 130.394 179.177 131.294 180.398 130.808L195.803 124.679C197.264 124.098 197.389 122.077 196.009 121.32Z" fill="black" stroke="black" stroke-width="0.464975"/>
<path d="M113.952 41.0734C111.369 44.4974 103.172 48.48 97.0738 51.0034C95.5439 51.6365 95.4964 53.7448 97.0699 54.2599C108.77 58.0903 126.669 58.7407 129.941 51.6303C133.635 43.6041 121.863 30.5864 113.952 41.0734Z" fill="black" stroke="black" stroke-width="0.464975"/>
</g>
<g clip-path="url(#clip2_153_93)">
<path d="M757.468 254V63.4466H814.784C834.68 63.4466 848 64.1126 854.743 65.4446C861.486 66.7765 867.355 69.815 872.35 74.5601C877.345 79.222 881.341 85.6321 884.338 93.7903C887.418 101.865 888.958 110.44 888.958 119.514C888.958 138.661 884.088 153.062 874.348 162.719C888.417 186.028 896.783 216.455 899.447 254H839.883V252.252C839.883 229.858 837.761 212.793 833.515 201.055C829.269 189.317 823.276 183.448 815.534 183.448H814.784V254H757.468ZM815.783 102.656H814.784V139.368H816.283C821.86 139.368 825.898 137.87 828.395 134.873C830.893 131.876 832.141 127.089 832.141 120.513C832.141 108.608 826.689 102.656 815.783 102.656Z" fill="black"/>
<path d="M786.115 254.341V103.543V92.9945H859.428V123.45V149.489H852.348H830.651L879.342 254.341H786.115Z" fill="black"/>
<path d="M852.374 150.652C859.813 150.652 860.278 146.002 860.743 139.957" stroke="black" stroke-width="2.32487"/>
<rect x="821.22" y="95.5517" width="18.599" height="17.669" rx="5.34721" stroke="black" stroke-width="5.11472"/>
<rect x="821.22" y="132.75" width="19.064" height="39.0579" rx="5.34721" transform="rotate(-90 821.22 132.75)" stroke="black" stroke-width="5.11472"/>
<rect x="840.283" y="95.5517" width="18.599" height="17.669" rx="5.34721" stroke="black" stroke-width="5.11472"/>
<rect x="803.086" y="95.5517" width="17.2041" height="29.7584" rx="5.34721" stroke="black" stroke-width="5.11472"/>
<rect x="784.021" y="95.5518" width="18.134" height="29.7584" rx="5.34721" stroke="black" stroke-width="5.11472"/>
<path d="M904.009 121.32L888.605 112.873C887.366 112.193 885.851 113.09 885.851 114.504V129.08C885.851 130.394 887.177 131.294 888.398 130.808L903.803 124.679C905.264 124.098 905.389 122.077 904.009 121.32Z" fill="black" stroke="black" stroke-width="0.464975"/>
<path d="M821.952 41.0734C819.369 44.4974 811.172 48.48 805.074 51.0034C803.544 51.6365 803.496 53.7448 805.07 54.2599C816.77 58.0903 834.669 58.7407 837.941 51.6303C841.635 43.6041 829.863 30.5864 821.952 41.0734Z" fill="black" stroke="black" stroke-width="0.464975"/>
</g>
<g clip-path="url(#clip3_153_93)">
<path d="M276.311 246.659L295.369 57.0612L352.398 62.7938C372.194 64.7838 385.38 66.7786 391.956 68.7783C398.532 70.778 404.068 74.3883 408.563 79.6092C413.067 84.7472 416.402 91.5248 418.567 99.9419C420.825 108.284 421.499 116.97 420.592 125.998C418.677 145.049 412.391 158.892 401.734 167.526C413.401 192.126 418.682 223.237 417.577 260.859L358.312 254.902L358.487 253.163C360.727 230.881 360.322 213.689 357.271 201.585C354.221 189.482 348.844 183.043 341.141 182.268L340.396 182.193L333.339 252.392L276.311 246.659ZM349.47 101.907L348.476 101.807L344.804 138.335L346.295 138.485C351.845 139.042 356.012 137.955 358.797 135.223C361.581 132.491 363.303 127.853 363.96 121.31C365.151 109.465 360.321 102.997 349.47 101.907Z" fill="black"/>
<path d="M304.779 249.863L319.862 99.8218L320.917 89.3261L393.863 96.6587L390.816 126.962L388.212 152.87L381.167 152.162L359.579 149.992L397.539 259.188L304.779 249.863Z" fill="black"/>
<path d="M381.077 153.321C388.479 154.065 389.407 149.485 390.474 143.517" stroke="black" stroke-width="2.32487"/>
<rect x="355.59" y="95.3816" width="18.599" height="17.669" rx="5.34721" transform="rotate(5.74019 355.59 95.3816)" stroke="black" stroke-width="5.11472"/>
<rect x="351.87" y="132.394" width="19.064" height="39.0579" rx="5.34721" transform="rotate(-84.2598 351.87 132.394)" stroke="black" stroke-width="5.11472"/>
<rect x="374.558" y="97.2883" width="18.599" height="17.669" rx="5.34721" transform="rotate(5.74019 374.558 97.2883)" stroke="black" stroke-width="5.11472"/>
<rect x="337.547" y="93.5679" width="17.2041" height="29.7584" rx="5.34721" transform="rotate(5.74019 337.547 93.5679)" stroke="black" stroke-width="5.11472"/>
<rect x="318.578" y="91.6612" width="18.134" height="29.7584" rx="5.34721" transform="rotate(5.74019 318.578 91.6612)" stroke="black" stroke-width="5.11472"/>
<path d="M435.387 129.301L420.905 119.356C419.74 118.555 418.143 119.296 418.002 120.703L416.544 135.206C416.412 136.513 417.642 137.541 418.906 137.18L434.846 132.623C436.358 132.19 436.684 130.192 435.387 129.301Z" fill="black" stroke="black" stroke-width="0.464975"/>
<path d="M361.767 41.2496C358.855 44.3982 350.301 47.5409 343.981 49.4418C342.395 49.9186 342.137 52.0116 343.651 52.6815C354.909 57.6629 372.653 60.1003 376.62 53.3528C381.098 45.7363 370.688 31.6065 361.767 41.2496Z" fill="black" stroke="black" stroke-width="0.464975"/>
</g>
<g clip-path="url(#clip4_153_93)">
<path d="M504.442 238.987L541.176 52.0082L597.416 63.0571C616.939 66.8926 629.881 70.1137 636.241 72.7206C642.6 75.3274 647.774 79.4403 651.76 85.0593C655.762 90.5966 658.448 97.6567 659.816 106.24C661.281 114.757 661.14 123.467 659.39 132.371C655.699 151.159 648.145 164.352 636.726 171.95C646.037 197.534 648.381 229.003 643.758 266.357L585.311 254.875L585.648 253.159C589.965 231.186 591.172 214.031 589.269 201.695C587.366 189.359 582.616 182.444 575.019 180.952L574.284 180.808L560.683 250.036L504.442 238.987ZM590.838 101.724L589.858 101.531L582.781 137.555L584.251 137.844C589.724 138.919 593.975 138.227 597.003 135.768C600.031 133.308 602.179 128.852 603.447 122.399C605.742 110.718 601.539 103.826 590.838 101.724Z" fill="black"/>
<path d="M532.486 244.844L561.555 96.8749L563.589 86.5241L635.527 100.657L629.656 130.542L624.636 156.092L617.689 154.727L596.399 150.544L623.964 262.816L532.486 244.844Z" fill="black"/>
<path d="M617.49 155.873C624.79 157.307 626.143 152.834 627.764 146.992" stroke="black" stroke-width="2.32487"/>
<rect x="597.542" y="95.8007" width="18.599" height="17.669" rx="5.34721" transform="rotate(11.1146 597.542 95.8007)" stroke="black" stroke-width="5.11472"/>
<rect x="590.372" y="132.301" width="19.064" height="39.0579" rx="5.34721" transform="rotate(-78.8854 590.372 132.301)" stroke="black" stroke-width="5.11472"/>
<rect x="616.248" y="99.4756" width="18.599" height="17.669" rx="5.34721" transform="rotate(11.1146 616.248 99.4756)" stroke="black" stroke-width="5.11472"/>
<rect x="579.749" y="92.305" width="17.2041" height="29.7584" rx="5.34721" transform="rotate(11.1146 579.749 92.305)" stroke="black" stroke-width="5.11472"/>
<rect x="561.042" y="88.6299" width="18.134" height="29.7584" rx="5.34721" transform="rotate(11.1146 561.042 88.6299)" stroke="black" stroke-width="5.11472"/>
<path d="M673.812 137.045L660.325 125.787C659.24 124.881 657.58 125.469 657.308 126.856L654.498 141.159C654.245 142.449 655.372 143.587 656.664 143.346L672.961 140.302C674.508 140.013 675.019 138.054 673.812 137.045Z" fill="black" stroke="black" stroke-width="0.464975"/>
<path d="M608.763 42.4853C605.568 45.3472 596.757 47.6749 590.287 48.9754C588.663 49.3017 588.21 51.3613 589.655 52.1701C600.397 58.1841 617.835 62.2726 622.417 55.9264C627.588 48.7628 618.547 33.72 608.763 42.4853Z" fill="black" stroke="black" stroke-width="0.464975"/>
</g>
<g clip-path="url(#clip5_153_93)">
<path d="M1001.18 259.123L986.137 69.1648L1043.27 64.6388C1063.11 63.0676 1076.44 62.6797 1083.27 63.475C1090.09 64.2703 1096.18 66.8359 1101.54 71.1718C1106.88 75.4247 1111.37 81.4992 1115.01 89.3953C1118.71 97.2018 1120.93 105.628 1121.64 114.674C1123.16 133.761 1119.44 148.502 1110.49 158.898C1126.36 181.023 1137.1 210.695 1142.72 247.912L1083.34 252.615L1083.2 250.872C1081.44 228.549 1077.97 211.704 1072.81 200.338C1067.65 188.972 1061.21 183.595 1053.5 184.206L1052.75 184.265L1058.32 254.597L1001.18 259.123ZM1047.37 103.647L1046.37 103.726L1049.27 140.323L1050.76 140.205C1056.32 139.765 1060.23 137.952 1062.48 134.767C1064.74 131.582 1065.6 126.712 1065.08 120.156C1064.14 108.289 1058.24 102.786 1047.37 103.647Z" fill="black"/>
<path d="M1029.77 257.201L1017.86 106.874L1017.03 96.3583L1090.11 90.569L1092.52 120.93L1094.57 146.887L1087.51 147.446L1065.89 149.159L1122.7 249.839L1029.77 257.201Z" fill="black"/>
<path d="M1087.63 148.603C1095.05 148.016 1095.14 143.344 1095.13 137.281" stroke="black" stroke-width="2.32487"/>
<rect x="1052.22" y="96.1354" width="18.599" height="17.669" rx="5.34721" transform="rotate(-4.52919 1052.22 96.1354)" stroke="black" stroke-width="5.11472"/>
<rect x="1055.16" y="133.218" width="19.064" height="39.0579" rx="5.34721" transform="rotate(-94.5292 1055.16 133.218)" stroke="black" stroke-width="5.11472"/>
<rect x="1071.23" y="94.6301" width="18.599" height="17.669" rx="5.34721" transform="rotate(-4.52919 1071.23 94.6301)" stroke="black" stroke-width="5.11472"/>
<rect x="1034.15" y="97.5674" width="17.2041" height="29.7584" rx="5.34721" transform="rotate(-4.52919 1034.15 97.5674)" stroke="black" stroke-width="5.11472"/>
<rect x="1015.14" y="99.0729" width="18.134" height="29.7584" rx="5.34721" transform="rotate(-4.52919 1015.14 99.0729)" stroke="black" stroke-width="5.11472"/>
<path d="M1136.79 115.286L1120.77 108.081C1119.48 107.501 1118.04 108.515 1118.15 109.924L1119.3 124.455C1119.41 125.765 1120.8 126.557 1121.98 125.977L1136.85 118.651C1138.26 117.955 1138.23 115.931 1136.79 115.286Z" fill="black" stroke="black" stroke-width="0.464975"/>
<path d="M1048.65 41.7694C1046.35 45.3867 1038.49 50.0041 1032.61 53.0013C1031.14 53.7531 1031.25 55.8586 1032.86 56.2479C1044.83 59.1424 1062.72 58.3774 1065.42 51.0307C1068.47 42.7379 1055.71 30.6904 1048.65 41.7694Z" fill="black" stroke="black" stroke-width="0.464975"/>
</g>
<g clip-path="url(#clip6_153_93)">
<path d="M1249.87 265.813L1211.73 79.114L1267.89 67.6443C1287.39 63.6628 1300.57 61.6498 1307.44 61.6055C1314.31 61.5611 1320.67 63.3637 1326.52 67.0133C1332.34 70.5813 1337.54 76.0621 1342.11 83.4556C1346.74 90.7508 1349.97 98.8437 1351.78 107.734C1355.62 126.494 1353.73 141.579 1346.12 152.989C1364.56 173.012 1378.85 201.149 1388.97 237.401L1330.62 249.321L1330.27 247.608C1325.78 225.667 1320.29 209.371 1313.78 198.721C1307.27 188.07 1300.22 183.519 1292.64 185.068L1291.91 185.218L1306.02 254.343L1249.87 265.813ZM1276.72 105.861L1275.74 106.061L1283.08 142.03L1284.55 141.73C1290.02 140.614 1293.67 138.338 1295.52 134.902C1297.37 131.466 1297.63 126.526 1296.32 120.083C1293.93 108.419 1287.4 103.678 1276.72 105.861Z" fill="black"/>
<path d="M1278 260.414L1247.83 112.667L1245.71 102.332L1317.55 87.6606L1323.64 117.5L1328.85 143.012L1321.91 144.429L1300.66 148.771L1369.34 241.758L1278 260.414Z" fill="black"/>
<path d="M1322.17 145.563C1329.46 144.074 1328.99 139.426 1328.23 133.41" stroke="black" stroke-width="2.32487"/>
<rect x="1280.62" y="97.8121" width="18.599" height="17.669" rx="5.34721" transform="rotate(-11.5437 1280.62 97.8121)" stroke="black" stroke-width="5.11472"/>
<rect x="1288.07" y="134.258" width="19.064" height="39.0579" rx="5.34721" transform="rotate(-101.544 1288.07 134.258)" stroke="black" stroke-width="5.11472"/>
<rect x="1299.3" y="93.9973" width="18.599" height="17.669" rx="5.34721" transform="rotate(-11.5437 1299.3 93.9973)" stroke="black" stroke-width="5.11472"/>
<rect x="1262.85" y="101.441" width="17.2041" height="29.7584" rx="5.34721" transform="rotate(-11.5437 1262.85 101.441)" stroke="black" stroke-width="5.11472"/>
<rect x="1244.18" y="105.256" width="18.134" height="29.7584" rx="5.34721" transform="rotate(-11.5437 1244.18 105.256)" stroke="black" stroke-width="5.11472"/>
<path d="M1366.89 106.492L1350.11 101.298C1348.76 100.88 1347.45 102.062 1347.74 103.447L1350.65 117.728C1350.92 119.016 1352.4 119.632 1353.5 118.912L1367.36 109.824C1368.68 108.962 1368.4 106.957 1366.89 106.492Z" fill="black" stroke="black" stroke-width="0.464975"/>
<path d="M1270.44 44.2893C1268.59 48.161 1261.36 53.7033 1255.89 57.396C1254.51 58.3224 1254.89 60.3976 1256.54 60.5874C1268.77 61.999 1286.43 59.0545 1288.22 51.433C1290.23 42.8299 1276.09 32.4313 1270.44 44.2893Z" fill="black" stroke="black" stroke-width="0.464975"/>
</g>
</g>
<defs>
<clipPath id="clip0_153_93">
<rect width="1416" height="236" fill="white"/>
</clipPath>
<clipPath id="clip1_153_93">
<rect width="236" height="236" fill="white"/>
</clipPath>
<clipPath id="clip2_153_93">
<rect width="236" height="236" fill="white" transform="translate(708)"/>
</clipPath>
<clipPath id="clip3_153_93">
<rect width="236" height="236" fill="white" transform="translate(236)"/>
</clipPath>
<clipPath id="clip4_153_93">
<rect width="236" height="236" fill="white" transform="translate(472)"/>
</clipPath>
<clipPath id="clip5_153_93">
<rect width="236" height="236" fill="white" transform="translate(944)"/>
</clipPath>
<clipPath id="clip6_153_93">
<rect width="236" height="236" fill="white" transform="translate(1180)"/>
</clipPath>
</defs>
</svg>
