<svg width="1440" height="900" viewBox="0 0 1440 900" fill="none" xmlns="http://www.w3.org/2000/svg">
<g clip-path="url(#clip0_65_80)">
<rect width="900" height="1440" transform="matrix(0 1 -1 0 1440 0)" fill="black"/>
<path d="M702.008 670.841L504.306 419.63L499.22 412.744L571.312 341.629L597.547 370.452L622.189 396.877L615.004 403.577L592.985 424.111L798.732 582.547L702.008 670.841Z" fill="white"/>
<path d="M575.703 343.808L605.198 375.245L607.475 377.774L615.5 386.687C620.748 393.261 624.677 398.42 617.127 405.46L600.614 420.549" stroke="black" stroke-width="5.18477"/>
<rect x="568.541" y="416.191" width="27.394" height="54.234" rx="6.64299" transform="rotate(-133 568.541 416.191)" stroke="black" stroke-width="6.15691"/>
<rect x="552.182" y="358.962" width="27.2572" height="25.4583" rx="6.64299" transform="rotate(-43 552.182 358.962)" stroke="black" stroke-width="6.15691"/>
<rect x="532.115" y="377.468" width="27.3321" height="25.4583" rx="6.64299" transform="rotate(-43 532.115 377.468)" stroke="black" stroke-width="6.15691"/>
<rect x="513.429" y="396.361" width="26.3752" height="40.6794" rx="6.64299" transform="rotate(-43 513.429 396.361)" stroke="black" stroke-width="6.15691"/>
<path d="M500.98 409.392L509.131 401.791C511.815 399.288 516.018 399.436 518.52 402.119L536.973 421.907C539.475 424.59 539.328 428.793 536.645 431.295L528.495 438.896C525.808 441.401 521.599 441.251 519.098 438.561L510.452 429.259L510.446 429.252L500.659 418.789C498.15 416.106 498.294 411.897 500.98 409.392Z" stroke="black" stroke-width="6.15691"/>
<rect x="622.742" y="396.096" width="1.94429" height="2.26834" transform="rotate(48 622.742 396.096)" fill="black"/>
<path d="M896.793 510.212L1065.24 238.513L1069.97 231.379L1161.45 274.8L1143.34 309.311L1126.93 341.505L1118.18 337.045L1091.35 323.376L1012.84 570.904L896.793 510.212Z" fill="white"/>
<path d="M1160.9 279.672L1141.45 318.14L1139.85 321.144L1134.22 331.734C1129.84 338.914 1126.34 344.37 1117.14 339.684L1097.31 329.327" stroke="black" stroke-width="5.18477"/>
<rect x="1090.44" y="297.698" width="27.394" height="54.234" rx="6.64299" transform="rotate(-63 1090.44 297.698)" stroke="black" stroke-width="6.15691"/>
<rect x="1138.62" y="262.752" width="27.2572" height="25.4583" rx="6.64299" transform="rotate(27 1138.62 262.752)" stroke="black" stroke-width="6.15691"/>
<rect x="1114.37" y="250.225" width="27.3321" height="25.4583" rx="6.64299" transform="rotate(27 1114.37 250.225)" stroke="black" stroke-width="6.15691"/>
<rect x="1090.22" y="239.127" width="26.3752" height="40.6794" rx="6.64299" transform="rotate(27 1090.22 239.127)" stroke="black" stroke-width="6.15691"/>
<path d="M1073.72 231.886L1083.65 236.946C1086.92 238.612 1088.22 242.612 1086.55 245.881L1074.27 269.989C1072.6 273.257 1068.6 274.557 1065.33 272.892L1055.4 267.832C1052.13 266.165 1050.83 262.158 1052.51 258.888L1058.29 247.581L1058.29 247.573L1064.78 234.798C1066.44 231.523 1070.45 230.219 1073.72 231.886Z" stroke="black" stroke-width="6.15691"/>
<rect x="1127.86" y="341.757" width="1.94429" height="2.26834" transform="rotate(118 1127.86 341.757)" fill="black"/>
<path d="M1304.43 169.228L1030.15 512.485L969.678 354.184L917.5 525.499L685.083 118.048L815 560.999L606 443.547L712.5 643.499L444 616.647L685.083 769.999L416.5 856.636L934.579 856.636L956.869 1312.6L1092.58 830.613L1585.4 1110.65L1238.33 742.55L1588.61 501.57L1238.33 587.142L1325.76 443.547L1158.06 514.058L1304.43 169.228Z" fill="#D1293C"/>
<path d="M-81.5 761.819H1051.79L1532.5 414" stroke="white" stroke-width="37"/>
<path d="M-41 674.871H1039.71L1511 335" stroke="white" stroke-width="37"/>
<path d="M1036 570L1046.69 919.096" stroke="white" stroke-width="37" stroke-linecap="round"/>
<path d="M1464 552L1050.5 831L1014 937.213H1557L1464 552Z" fill="white" stroke="white" stroke-width="0.74266"/>
<rect x="-56" y="830" width="1111" height="286" fill="white"/>
</g>
<defs>
<clipPath id="clip0_65_80">
<rect width="900" height="1440" fill="white" transform="matrix(0 1 -1 0 1440 0)"/>
</clipPath>
</defs>
</svg>
