<svg width="345" height="394" viewBox="0 0 345 394" fill="none" xmlns="http://www.w3.org/2000/svg">
<path d="M489.261 -1.30505L148.62 341.753L139.22 350.657L19.1878 255.551L57.6168 210.858L92.7403 169L104.122 178.55L139.001 207.817L338.901 -130.219L489.261 -1.30505Z" fill="white"/>
<path d="M21.6516 248.557L63.4042 198.49L66.7797 194.607L78.6795 180.918C87.5807 171.828 94.6002 164.98 106.56 175.015L132.252 197.021" stroke="black" stroke-width="7.84101"/>
<rect x="131.621" y="245.967" width="41.4283" height="82.0189" rx="10.0463" transform="rotate(130 131.621 245.967)" stroke="black" stroke-width="9.3112"/>
<rect x="48.7315" y="281.071" width="41.2214" height="38.501" rx="10.0463" transform="rotate(-140 48.7315 281.071)" stroke="black" stroke-width="9.3112"/>
<rect x="80.2076" y="307.781" width="41.3347" height="38.501" rx="10.0463" transform="rotate(-140 80.2076 307.781)" stroke="black" stroke-width="9.3112"/>
<rect x="112.013" y="332.347" width="39.8876" height="61.5201" rx="10.0463" transform="rotate(-140 112.013 332.347)" stroke="black" stroke-width="9.3112"/>
<path d="M133.867 348.633L120.954 337.798C116.704 334.231 116.15 327.894 119.716 323.644L146.018 292.299C149.584 288.049 155.921 287.495 160.171 291.061L173.082 301.895C177.337 305.465 177.888 311.811 174.311 316.06L161.942 330.753L161.932 330.764L148.03 347.383C144.466 351.643 138.121 352.203 133.867 348.633Z" stroke="black" stroke-width="9.3112"/>
<rect x="91.4655" y="168.312" width="2.94038" height="3.43044" transform="rotate(-49 91.4655 168.312)" fill="black"/>
<path d="M358.659 -157.951L139.031 207.879L129.656 200.014L348.53 -164.037L358.659 -157.951Z" fill="black"/>
<path d="M537.26 -51.3291L162.581 337.262L138.314 350.988L531.861 -56.5423L537.26 -51.3291Z" fill="black"/>
</svg>
