<svg width="917" height="672" viewBox="0 0 917 672" fill="none" xmlns="http://www.w3.org/2000/svg">
<g clip-path="url(#clip0_180_17)">
<path d="M984.844 473.287L956.544 68.5804L834.814 77.0926C792.558 80.0474 764.368 83.44 750.244 87.2703C736.121 91.1006 724.108 98.4256 714.204 109.245C704.288 119.888 696.753 134.096 691.6 151.868C686.258 169.475 684.26 187.915 685.608 207.186C688.451 247.852 700.933 277.716 723.054 296.778C696.635 348.373 683.385 414.238 683.303 494.373L809.807 485.527L809.548 481.814C806.222 434.253 808.196 397.693 815.47 372.133C822.744 346.573 834.602 333.218 851.045 332.068L852.636 331.957L863.114 481.799L984.844 473.287ZM838.516 160.516L840.637 160.368L846.09 238.339L842.907 238.561C831.061 239.39 822.264 236.807 816.514 230.813C810.765 224.819 807.402 214.838 806.425 200.87C804.657 175.587 815.354 162.136 838.516 160.516Z" fill="black"/>
<path d="M924.041 478.046L901.645 157.775L900.079 135.371L744.372 146.259L748.895 210.943L752.762 266.245L767.8 265.193L813.881 261.971L726.04 491.892L924.041 478.046Z" fill="black"/>
<rect x="-5.05164" y="5.81125" width="39.5979" height="40.5878" transform="matrix(-0.997564 0.0697565 0.0697565 0.997564 820.453 140.567)" stroke="black" stroke-width="10.8894"/>
<rect x="-5.81125" y="-5.05164" width="40.5878" height="83.1556" transform="matrix(-0.0697565 -0.997564 -0.997564 0.0697565 825.979 219.571)" stroke="black" stroke-width="10.8894"/>
<rect x="-5.05164" y="5.81125" width="39.5979" height="40.5878" transform="matrix(-0.997564 0.0697565 0.0697565 0.997564 779.966 143.402)" stroke="black" stroke-width="10.8894"/>
<rect x="-5.05164" y="5.81125" width="36.6281" height="63.3566" transform="matrix(-0.997564 0.0697565 0.0697565 0.997564 858.967 137.873)" stroke="black" stroke-width="10.8894"/>
<rect x="-5.05164" y="5.81125" width="38.6079" height="63.3566" transform="matrix(-0.997564 0.0697565 0.0697565 0.997564 899.456 135.043)" stroke="black" stroke-width="10.8894"/>
<path d="M653.891 213.034L685.353 192.805C687.885 191.177 691.235 192.857 691.445 195.859L693.61 226.816C693.805 229.608 691.122 231.716 688.456 230.865L654.829 220.137C651.638 219.119 651.074 214.845 653.891 213.034Z" fill="black" stroke="black" stroke-width="0.989947"/>
<path d="M779.418 28.1147C785.412 35.0033 803.413 42.2443 816.739 46.698C820.083 47.8153 820.497 52.2859 817.231 53.6137C792.951 63.4865 755.034 67.5261 747.027 52.9105C737.99 36.4127 761.059 7.01682 779.418 28.1147Z" fill="black" stroke="black" stroke-width="0.989947"/>
<path d="M886.829 678.234L929.235 274.762L807.876 262.007C765.749 257.579 737.398 256.025 722.824 257.344C708.25 258.664 695.147 263.792 683.515 272.727C671.902 281.486 662.015 294.17 653.854 310.777C645.535 327.189 640.366 345.002 638.346 364.215C634.085 404.756 641.192 436.333 659.666 458.948C624.689 505.171 600.203 567.735 586.208 646.638L712.326 659.893L712.715 656.191C717.698 608.776 725.991 573.114 737.593 549.205C749.194 525.297 763.192 514.204 779.584 515.927L781.171 516.094L765.47 665.479L886.829 678.234ZM797.035 344.805L799.15 345.028L790.98 422.761L787.808 422.427C775.998 421.186 767.782 417.115 763.161 410.213C758.54 403.312 756.962 392.899 758.425 378.974C761.074 353.768 773.944 342.378 797.035 344.805Z" fill="black"/>
<path d="M826.122 672.353L859.681 353.058L862.028 330.723L706.797 314.407L700.019 378.894L694.224 434.027L709.215 435.603L755.156 440.431L628.724 651.606L826.122 672.353Z" fill="black"/>
<rect x="-5.98401" y="4.84576" width="39.5979" height="40.5878" transform="matrix(-0.994522 -0.104528 -0.104528 0.994522 781.682 322.883)" stroke="black" stroke-width="10.8894"/>
<rect x="-4.84576" y="-5.98401" width="40.5878" height="83.1556" transform="matrix(0.104528 -0.994522 -0.994522 -0.104528 773.405 401.648)" stroke="black" stroke-width="10.8894"/>
<rect x="-5.98401" y="4.84576" width="39.5979" height="40.5878" transform="matrix(-0.994522 -0.104528 -0.104528 0.994522 741.319 318.641)" stroke="black" stroke-width="10.8894"/>
<rect x="-5.98401" y="4.84576" width="36.6281" height="63.3566" transform="matrix(-0.994522 -0.104528 -0.104528 0.994522 820.079 326.917)" stroke="black" stroke-width="10.8894"/>
<rect x="-5.98401" y="4.84576" width="38.6079" height="63.3566" transform="matrix(-0.994522 -0.104528 -0.104528 0.994522 860.445 331.161)" stroke="black" stroke-width="10.8894"/>
<path d="M606.096 364.466L640.592 350.007C643.368 348.844 646.376 351.08 646.061 354.073L642.817 384.936C642.525 387.719 639.517 389.329 637.039 388.028L605.786 371.624C602.82 370.067 603.007 365.76 606.096 364.466Z" fill="black" stroke="black" stroke-width="0.989947"/>
<path d="M797.7 212.813C802.407 220.638 818.876 230.895 831.227 237.595C834.326 239.276 833.957 243.751 830.511 244.491C804.885 249.998 766.842 247.392 761.496 231.608C755.46 213.791 783.283 188.848 797.7 212.813Z" fill="black" stroke="black" stroke-width="0.989947"/>
<path d="M806.104 901.304L841.462 497.153L719.899 486.517C677.701 482.825 649.327 481.766 634.779 483.34C620.23 484.914 607.219 490.269 595.744 499.407C584.286 508.367 574.621 521.221 566.751 537.968C558.72 554.523 553.863 572.423 552.179 591.669C548.626 632.278 556.282 663.727 575.148 686.015C540.984 732.842 517.594 795.823 504.977 874.958L631.307 886.011L631.632 882.303C635.787 834.808 643.456 799.006 654.639 774.899C665.821 750.792 679.623 739.456 696.043 740.893L697.632 741.032L684.541 890.668L806.104 901.304ZM710.505 569.493L712.624 569.678L705.812 647.542L702.633 647.264C690.804 646.229 682.519 642.302 677.778 635.482C673.037 628.662 671.277 618.278 672.497 604.33C674.706 579.082 687.375 567.469 710.505 569.493Z" fill="black"/>
<path d="M745.331 896.478L773.313 576.647L775.27 554.274L619.777 540.67L614.126 605.265L609.294 660.491L624.311 661.805L670.329 665.831L547.602 879.179L745.331 896.478Z" fill="black"/>
<rect x="-5.89853" y="4.94945" width="39.5979" height="40.5878" transform="matrix(-0.996195 -0.0871557 -0.0871557 0.996195 694.896 547.738)" stroke="black" stroke-width="10.8894"/>
<rect x="-4.94945" y="-5.89853" width="40.5878" height="83.1556" transform="matrix(0.0871557 -0.996195 -0.996195 -0.0871557 687.992 626.639)" stroke="black" stroke-width="10.8894"/>
<rect x="-5.89853" y="4.94945" width="39.5979" height="40.5878" transform="matrix(-0.996195 -0.0871557 -0.0871557 0.996195 654.462 544.199)" stroke="black" stroke-width="10.8894"/>
<rect x="-5.89853" y="4.94945" width="36.6281" height="63.3566" transform="matrix(-0.996195 -0.0871557 -0.0871557 0.996195 733.355 551.102)" stroke="black" stroke-width="10.8894"/>
<rect x="-5.89853" y="4.94945" width="38.6079" height="63.3566" transform="matrix(-0.996195 -0.0871557 -0.0871557 0.996195 773.789 554.643)" stroke="black" stroke-width="10.8894"/>
<path d="M519.967 592.477L554.206 577.419C556.961 576.207 560.007 578.391 559.745 581.389L557.04 612.304C556.796 615.091 553.816 616.753 551.316 615.496L519.782 599.64C516.79 598.135 516.901 593.826 519.967 592.477Z" fill="black" stroke="black" stroke-width="0.989947"/>
<path d="M708.895 437.504C713.738 445.245 730.384 455.213 742.85 461.697C745.977 463.323 745.687 467.804 742.254 468.604C716.728 474.557 678.646 472.615 673.024 456.927C666.679 439.219 694.062 413.794 708.895 437.504Z" fill="black" stroke="black" stroke-width="0.989947"/>
<rect x="783.677" y="458.5" width="133.323" height="296.995" fill="black"/>
<path d="M-81.578 473.287L-53.2782 68.5804L68.452 77.0926C110.708 80.0474 138.898 83.44 153.022 87.2703C167.145 91.1006 179.159 98.4256 189.062 109.245C198.978 119.888 206.513 134.096 211.666 151.868C217.009 169.475 219.006 187.915 217.658 207.186C214.815 247.852 202.333 277.716 180.213 296.778C206.631 348.373 219.881 414.238 219.963 494.373L93.4589 485.527L93.7185 481.814C97.0443 434.253 95.0702 397.693 87.7964 372.133C80.5226 346.573 68.6643 333.218 52.2214 332.068L50.6302 331.957L40.1522 481.799L-81.578 473.287ZM64.7505 160.516L62.6289 160.368L57.1766 238.339L60.3591 238.561C72.205 239.39 81.0026 236.807 86.7518 230.813C92.5011 224.819 95.864 214.838 96.8407 200.87C98.6087 175.587 87.912 162.136 64.7505 160.516Z" fill="black"/>
<path d="M-20.7749 478.046L1.62064 157.775L3.18726 135.371L158.894 146.259L154.371 210.943L150.504 266.245L135.467 265.193L89.3852 261.971L177.226 491.892L-20.7749 478.046Z" fill="black"/>
<rect x="77.3682" y="146.012" width="39.5979" height="40.5879" transform="rotate(4 77.3682 146.012)" stroke="black" stroke-width="10.8894"/>
<rect x="71.8434" y="225.016" width="40.5879" height="83.1556" transform="rotate(-86 71.8434 225.016)" stroke="black" stroke-width="10.8894"/>
<rect x="117.857" y="148.846" width="39.5979" height="40.5879" transform="rotate(4 117.857 148.846)" stroke="black" stroke-width="10.8894"/>
<rect x="38.856" y="143.318" width="36.6281" height="63.3566" transform="rotate(4 38.856 143.318)" stroke="black" stroke-width="10.8894"/>
<rect x="-1.63244" y="140.488" width="38.608" height="63.3566" transform="rotate(4 -1.63244 140.488)" stroke="black" stroke-width="10.8894"/>
<path d="M249.376 213.034L217.914 192.805C215.382 191.177 212.032 192.857 211.822 195.859L209.658 226.816C209.462 229.608 212.145 231.716 214.811 230.865L248.438 220.137C251.629 219.119 252.193 214.845 249.376 213.034Z" fill="black" stroke="black" stroke-width="0.989947"/>
<path d="M123.849 28.1147C117.855 35.0033 99.8543 42.2443 86.5277 46.698C83.1844 47.8153 82.7704 52.2859 86.0358 53.6137C110.316 63.4865 148.233 67.5261 156.24 52.9105C165.277 36.4127 142.208 7.01682 123.849 28.1147Z" fill="black" stroke="black" stroke-width="0.989947"/>
<path d="M16.4393 678.234L-25.9673 274.762L95.3916 262.007C137.519 257.579 165.87 256.025 180.444 257.344C195.018 258.664 208.121 263.792 219.753 272.727C231.366 281.486 241.253 294.17 249.414 310.777C257.733 327.189 262.902 345.002 264.922 364.215C269.183 404.756 262.076 436.333 243.602 458.948C278.579 505.171 303.065 567.735 317.06 646.638L190.942 659.893L190.553 656.191C185.57 608.776 177.277 573.114 165.675 549.205C154.074 525.297 140.076 514.204 123.684 515.927L122.097 516.094L137.798 665.479L16.4393 678.234ZM106.233 344.805L104.117 345.028L112.288 422.761L115.46 422.427C127.27 421.186 135.486 417.115 140.107 410.213C144.728 403.312 146.306 392.899 144.843 378.974C142.194 353.768 129.323 342.378 106.233 344.805Z" fill="black"/>
<path d="M77.1463 672.353L43.587 353.058L41.2395 330.723L196.471 314.407L203.249 378.894L209.044 434.027L194.053 435.603L148.112 440.431L274.543 651.606L77.1463 672.353Z" fill="black"/>
<rect x="116.142" y="328.328" width="39.5979" height="40.5878" transform="rotate(-6 116.142 328.328)" stroke="black" stroke-width="10.8894"/>
<rect x="124.417" y="407.092" width="40.5878" height="83.1556" transform="rotate(-96 124.417 407.092)" stroke="black" stroke-width="10.8894"/>
<rect x="156.503" y="324.086" width="39.5979" height="40.5878" transform="rotate(-6 156.503 324.086)" stroke="black" stroke-width="10.8894"/>
<rect x="77.7428" y="332.362" width="36.6281" height="63.3566" transform="rotate(-6 77.7428 332.362)" stroke="black" stroke-width="10.8894"/>
<rect x="37.3783" y="336.605" width="38.6079" height="63.3566" transform="rotate(-6 37.3783 336.605)" stroke="black" stroke-width="10.8894"/>
<path d="M297.171 364.466L262.675 350.007C259.899 348.844 256.892 351.08 257.206 354.073L260.45 384.936C260.742 387.719 263.751 389.329 266.228 388.028L297.481 371.624C300.447 370.067 300.261 365.76 297.171 364.466Z" fill="black" stroke="black" stroke-width="0.989947"/>
<path d="M105.568 212.813C100.861 220.638 84.3916 230.895 72.0408 237.595C68.9424 239.276 69.311 243.751 72.7573 244.491C98.3832 249.998 136.426 247.392 141.772 231.608C147.808 213.791 119.985 188.848 105.568 212.813Z" fill="black" stroke="black" stroke-width="0.989947"/>
<path d="M97.1631 901.301L61.8045 497.15L183.368 486.514C225.566 482.823 253.939 481.763 268.488 483.337C283.037 484.911 296.048 490.267 307.522 499.404C318.981 508.364 328.646 521.218 336.516 537.965C344.547 554.52 349.404 572.42 351.088 591.666C354.641 632.275 346.984 663.724 328.119 686.012C362.283 732.839 385.673 795.82 398.29 874.955L271.96 886.008L271.635 882.3C267.48 834.805 259.811 799.003 248.628 774.896C237.445 750.789 223.644 739.453 207.224 740.89L205.635 741.029L218.726 890.665L97.1631 901.301ZM192.762 569.49L190.643 569.675L197.455 647.539L200.633 647.261C212.463 646.226 220.748 642.299 225.489 635.479C230.23 628.659 231.99 618.275 230.77 604.327C228.561 579.079 215.892 567.466 192.762 569.49Z" fill="black"/>
<path d="M157.938 896.484L129.956 576.652L127.999 554.279L283.491 540.675L289.143 605.27L293.974 660.496L278.958 661.81L232.94 665.836L355.667 879.185L157.938 896.484Z" fill="black"/>
<rect x="202.928" y="553.188" width="39.5979" height="40.5878" transform="rotate(-5 202.928 553.188)" stroke="black" stroke-width="10.8894"/>
<rect x="209.832" y="632.089" width="40.5878" height="83.1556" transform="rotate(-95 209.832 632.089)" stroke="black" stroke-width="10.8894"/>
<rect x="243.361" y="549.649" width="39.5979" height="40.5878" transform="rotate(-5 243.361 549.649)" stroke="black" stroke-width="10.8894"/>
<rect x="164.468" y="556.552" width="36.6281" height="63.3566" transform="rotate(-5 164.468 556.552)" stroke="black" stroke-width="10.8894"/>
<rect x="124.034" y="560.093" width="38.6079" height="63.3566" transform="rotate(-5 124.034 560.093)" stroke="black" stroke-width="10.8894"/>
<path d="M383.301 592.482L349.062 577.424C346.307 576.213 343.261 578.396 343.523 581.394L346.228 612.309C346.472 615.097 349.452 616.759 351.952 615.502L383.486 599.645C386.478 598.14 386.367 593.831 383.301 592.482Z" fill="black" stroke="black" stroke-width="0.989947"/>
<path d="M194.374 437.509C189.531 445.251 172.885 455.218 160.419 461.702C157.292 463.329 157.582 467.809 161.015 468.61C186.541 474.563 224.623 472.621 230.245 456.933C236.59 439.224 209.207 413.799 194.374 437.509Z" fill="black" stroke="black" stroke-width="0.989947"/>
<rect width="125.735" height="267.729" transform="matrix(-1 0 0 1 109.476 513.78)" fill="black"/>
</g>
<defs>
<clipPath id="clip0_180_17">
<rect width="917" height="672" fill="white"/>
</clipPath>
</defs>
</svg>
