<svg width="968" height="718" viewBox="0 0 968 718" fill="none" xmlns="http://www.w3.org/2000/svg">
<path d="M-216.505 391.811L787.782 118.904L814.888 112.422L936.294 418.918L816.549 460.875L706.016 501.105L695.077 471.05L661.554 378.947L-74.95 793.975L-216.505 391.811Z" fill="white"/>
<path d="M924.179 429.305L792.453 477.704L781.98 481.31L745.062 494.022C718.684 501.388 698.227 506.598 686.733 475.017L662.522 406.339" stroke="black" stroke-width="16.879"/>
<rect x="716.378" y="315.771" width="89.1811" height="176.559" rx="21.6263" transform="rotate(-20 716.378 315.771)" stroke="black" stroke-width="20.0438"/>
<rect x="908.688" y="339.544" width="88.7357" height="82.8797" rx="21.6263" transform="rotate(70 908.688 339.544)" stroke="black" stroke-width="20.0438"/>
<rect x="878.756" y="255.87" width="88.9797" height="82.8797" rx="21.6263" transform="rotate(70 878.756 255.87)" stroke="black" stroke-width="20.0438"/>
<rect x="845.909" y="175.841" width="85.8646" height="132.432" rx="21.6263" transform="rotate(70 845.909 175.841)" stroke="black" stroke-width="20.0438"/>
<path d="M822.693 121.957L835.103 156.055C839.188 167.279 833.401 179.689 822.177 183.774L739.406 213.9C728.183 217.985 715.773 212.198 711.688 200.975L699.278 166.88C695.189 155.644 700.994 143.221 712.236 139.149L751.109 125.07L751.138 125.06L794.943 109.043C806.172 104.937 818.603 110.722 822.693 121.957Z" stroke="black" stroke-width="20.0438"/>
<rect x="707.652" y="503.756" width="6.32964" height="7.38458" transform="rotate(161 707.652 503.756)" fill="black"/>
<path d="M-141.635 824.406L661.562 378.798L670.574 403.55L-129.303 846.655L-141.635 824.406Z" fill="black"/>
<path d="M-359.833 433.402L756.917 112.246L816.932 112.777L-355.38 448.932L-359.833 433.402Z" fill="black"/>
</svg>
