<svg width="32" height="32" viewBox="0 0 32 32" fill="none" xmlns="http://www.w3.org/2000/svg">
<g clip-path="url(#clip0_322_5)">
<rect width="32" height="32" rx="3" fill="#D1293C"/>
<path d="M6.85626 35V7.22886H15.2094C18.1091 7.22886 20.0503 7.32592 21.033 7.52004C22.0157 7.71416 22.8711 8.15699 23.599 8.84854C24.327 9.52796 24.9093 10.4622 25.3461 11.6511C25.795 12.828 26.0194 14.0776 26.0194 15.4001C26.0194 18.1905 25.3097 20.2894 23.8902 21.6968C25.9406 25.0939 27.1599 29.5283 27.5481 35H18.8674V34.7452C18.8674 31.4816 18.558 28.9944 17.9392 27.2838C17.3205 25.5731 16.447 24.7178 15.3186 24.7178H15.2094V35H6.85626ZM15.355 12.9432H15.2094V18.2936H15.4278C16.2407 18.2936 16.8291 18.0753 17.1931 17.6385C17.5571 17.2017 17.7391 16.5041 17.7391 15.5456C17.7391 13.8107 16.9444 12.9432 15.355 12.9432Z" fill="black"/>
<path d="M11.0303 35.0667V13.0896V11.5522H21.7149V15.9909V19.7857H20.6831H17.5209L24.6172 35.0667H11.0303Z" fill="black"/>
<path d="M20.6875 19.9556C21.7717 19.9556 21.8395 19.2779 21.9073 18.397" stroke="black" stroke-width="0.338826"/>
<rect x="16.1471" y="11.9259" width="2.71061" height="2.57508" rx="0.779299" stroke="black" stroke-width="0.745417"/>
<rect x="16.1471" y="17.3465" width="2.77837" height="5.69227" rx="0.779299" transform="rotate(-90 16.1471 17.3465)" stroke="black" stroke-width="0.745417"/>
<rect x="18.9264" y="11.9259" width="2.71061" height="2.57508" rx="0.779299" stroke="black" stroke-width="0.745417"/>
<rect x="13.5045" y="11.9259" width="2.50731" height="4.33697" rx="0.779299" stroke="black" stroke-width="0.745417"/>
<rect x="10.7252" y="11.9259" width="2.64284" height="4.33697" rx="0.779299" stroke="black" stroke-width="0.745417"/>
<path d="M28.2138 15.6807L25.9688 14.4496C25.7881 14.3506 25.5674 14.4813 25.5674 14.6873V16.8116C25.5674 17.0031 25.7607 17.1343 25.9386 17.0635L28.1837 16.1703C28.3967 16.0855 28.4148 15.791 28.2138 15.6807Z" fill="black" stroke="black" stroke-width="0.0677652"/>
<path d="M16.2543 3.9862C15.8778 4.48522 14.6832 5.06564 13.7945 5.4334C13.5715 5.52566 13.5646 5.83292 13.7939 5.908C15.4991 6.46624 18.1076 6.56103 18.5845 5.52475C19.1229 4.35502 17.4072 2.45783 16.2543 3.9862Z" fill="black" stroke="black" stroke-width="0.0677652"/>
</g>
<defs>
<clipPath id="clip0_322_5">
<rect width="32" height="32" rx="3" fill="white"/>
</clipPath>
</defs>
</svg>
