<svg width="533" height="722" viewBox="0 0 533 722" fill="none" xmlns="http://www.w3.org/2000/svg">
<g clip-path="url(#clip0_182_151)">
<rect width="533" height="722" fill="black"/>
<g filter="url(#filter0_d_182_151)">
<path d="M104.278 630.023L83.8432 634.038L83.2982 641.448L104.074 631.792L114.512 648.276L139.069 636.395L132.89 624.789L144.522 633.327L160.647 622.543L153.059 612.658L165.399 618.575L194.463 582.085L159.73 578.742L150.508 596.454L153.569 580.722L137.423 590.211L130.376 603.175L131.91 591.537L110.786 602.319L104.278 630.023Z" fill="white"/>
<path d="M104.278 630.023L83.8432 634.038L83.2982 641.448L104.074 631.792L114.512 648.276L139.069 636.395L132.89 624.789L144.522 633.327L160.647 622.543L153.059 612.658L165.399 618.575L194.463 582.085L159.73 578.742L150.508 596.454L153.569 580.722L137.423 590.211L130.376 603.175L131.91 591.537L110.786 602.319L104.278 630.023Z" stroke="black" stroke-width="0.26565"/>
</g>
<g filter="url(#filter1_d_182_151)">
<path d="M141.656 670.422L110.098 663.204L104.639 673.383L140.248 672.805L144.649 702.814L187.033 701.469L185.597 681.079L196.718 700.559L226.435 695.44L221.91 676.605L235.693 692.81L300.038 659.366L252.826 632.659L228.532 651.981L242.826 631.575L213.898 634.841L195.693 648.796L205.23 633.24L168.414 635.194L141.656 670.422Z" fill="white"/>
<path d="M141.656 670.422L110.098 663.204L104.639 673.383L140.248 672.805L144.649 702.814L187.033 701.469L185.597 681.079L196.718 700.559L226.435 695.44L221.91 676.605L235.693 692.81L300.038 659.366L252.826 632.659L228.532 651.981L242.826 631.575L213.898 634.841L195.693 648.796L205.23 633.24L168.414 635.194L141.656 670.422Z" stroke="black" stroke-width="0.412952"/>
</g>
<g filter="url(#filter2_d_182_151)">
<path d="M-1.13559 676.78L-32.6935 669.562L-38.1527 679.741L-2.54388 679.163L1.85714 709.172L44.2419 707.827L42.8058 687.437L53.9265 706.917L83.6436 701.798L79.1189 682.964L92.9018 699.168L157.246 665.724L110.035 639.017L85.7402 658.339L100.034 637.933L71.1066 641.2L52.9019 655.154L62.439 639.598L25.6227 641.552L-1.13559 676.78Z" fill="white"/>
<path d="M-1.13559 676.78L-32.6935 669.562L-38.1527 679.741L-2.54388 679.163L1.85714 709.172L44.2419 707.827L42.8058 687.437L53.9265 706.917L83.6436 701.798L79.1189 682.964L92.9018 699.168L157.246 665.724L110.035 639.017L85.7402 658.339L100.034 637.933L71.1066 641.2L52.9019 655.154L62.439 639.598L25.6227 641.552L-1.13559 676.78Z" stroke="black" stroke-width="0.412952"/>
</g>
<g filter="url(#filter3_d_182_151)">
<path d="M103.863 605.644L128.03 584.105L137.721 590.39L106.246 607.052L116.859 635.465L79.0783 654.723L70.5052 636.167L70.1549 658.595L41.6521 668.439L36.5348 649.757L32.2732 670.599L-40.2233 672.324L-11.7393 626.163L18.8612 631.376L-3.50079 620.391L23.4174 609.305L46.0945 612.752L30.2387 603.722L63.4352 587.683L103.863 605.644Z" fill="white"/>
<path d="M103.863 605.644L128.03 584.105L137.721 590.39L106.246 607.052L116.859 635.465L79.0783 654.723L70.5052 636.167L70.1549 658.595L41.6521 668.439L36.5348 649.757L32.2732 670.599L-40.2233 672.324L-11.7393 626.163L18.8612 631.376L-3.50079 620.391L23.4174 609.305L46.0945 612.752L30.2387 603.722L63.4352 587.683L103.863 605.644Z" stroke="black" stroke-width="0.412952"/>
</g>
<g filter="url(#filter4_d_182_151)">
<path d="M356.515 635.624L336.081 639.639L335.536 647.05L356.311 637.393L366.749 653.877L391.306 641.997L385.127 630.39L396.759 638.928L412.884 628.144L405.297 618.259L417.637 624.176L446.7 587.686L411.967 584.344L402.745 602.056L405.806 586.323L389.661 595.812L382.613 608.776L384.148 597.139L363.023 607.92L356.515 635.624Z" fill="white"/>
<path d="M356.515 635.624L336.081 639.639L335.536 647.05L356.311 637.393L366.749 653.877L391.306 641.997L385.127 630.39L396.759 638.928L412.884 628.144L405.297 618.259L417.637 624.176L446.7 587.686L411.967 584.344L402.745 602.056L405.806 586.323L389.661 595.812L382.613 608.776L384.148 597.139L363.023 607.92L356.515 635.624Z" stroke="black" stroke-width="0.26565"/>
</g>
<g filter="url(#filter5_d_182_151)">
<path d="M393.892 676.024L362.334 668.806L356.875 678.984L392.484 678.407L396.885 708.416L439.27 707.071L437.834 686.681L448.954 706.161L478.671 701.042L474.147 682.207L487.93 698.412L552.274 664.968L505.063 638.261L480.768 657.583L495.062 637.176L466.134 640.443L447.93 654.398L457.467 638.842L420.651 640.796L393.892 676.024Z" fill="white"/>
<path d="M393.892 676.024L362.334 668.806L356.875 678.984L392.484 678.407L396.885 708.416L439.27 707.071L437.834 686.681L448.954 706.161L478.671 701.042L474.147 682.207L487.93 698.412L552.274 664.968L505.063 638.261L480.768 657.583L495.062 637.176L466.134 640.443L447.93 654.398L457.467 638.842L420.651 640.796L393.892 676.024Z" stroke="black" stroke-width="0.412952"/>
</g>
<g filter="url(#filter6_d_182_151)">
<path d="M251.102 682.382L219.544 675.164L214.085 685.342L249.693 684.764L254.094 714.774L296.479 713.429L295.043 693.039L306.164 712.519L335.881 707.4L331.356 688.565L345.139 704.77L409.484 671.326L362.272 644.619L337.977 663.941L352.272 643.534L323.344 646.801L305.139 660.756L314.676 645.2L277.86 647.154L251.102 682.382Z" fill="white"/>
<path d="M251.102 682.382L219.544 675.164L214.085 685.342L249.693 684.764L254.094 714.774L296.479 713.429L295.043 693.039L306.164 712.519L335.881 707.4L331.356 688.565L345.139 704.77L409.484 671.326L362.272 644.619L337.977 663.941L352.272 643.534L323.344 646.801L305.139 660.756L314.676 645.2L277.86 647.154L251.102 682.382Z" stroke="black" stroke-width="0.412952"/>
</g>
<g filter="url(#filter7_d_182_151)">
<path d="M356.1 611.246L380.268 589.707L389.958 595.992L358.483 612.654L369.097 641.067L331.316 660.325L322.743 641.77L322.392 664.197L293.889 674.041L288.772 655.359L284.51 676.201L212.014 677.926L240.498 631.765L271.099 636.978L248.737 625.993L275.655 614.907L298.332 618.355L282.476 609.324L315.672 593.285L356.1 611.246Z" fill="white"/>
<path d="M356.1 611.246L380.268 589.707L389.958 595.992L358.483 612.654L369.097 641.067L331.316 660.325L322.743 641.77L322.392 664.197L293.889 674.041L288.772 655.359L284.51 676.201L212.014 677.926L240.498 631.765L271.099 636.978L248.737 625.993L275.655 614.907L298.332 618.355L282.476 609.324L315.672 593.285L356.1 611.246Z" stroke="black" stroke-width="0.412952"/>
</g>
</g>
<defs>
<filter id="filter0_d_182_151" x="74.0449" y="571.455" width="129.779" height="88.0544" filterUnits="userSpaceOnUse" color-interpolation-filters="sRGB">
<feFlood flood-opacity="0" result="BackgroundImageFix"/>
<feColorMatrix in="SourceAlpha" type="matrix" values="0 0 0 0 0 0 0 0 0 0 0 0 0 0 0 0 0 0 127 0" result="hardAlpha"/>
<feOffset dy="1.95795"/>
<feGaussianBlur stdDeviation="4.55224"/>
<feComposite in2="hardAlpha" operator="out"/>
<feColorMatrix type="matrix" values="0 0 0 0 0 0 0 0 0 0 0 0 0 0 0 0 0 0 0.25 0"/>
<feBlend mode="normal" in2="BackgroundImageFix" result="effect1_dropShadow_182_151"/>
<feBlend mode="normal" in="SourceGraphic" in2="effect1_dropShadow_182_151" result="shape"/>
</filter>
<filter id="filter1_d_182_151" x="95.186" y="624.172" width="214.389" height="89.9172" filterUnits="userSpaceOnUse" color-interpolation-filters="sRGB">
<feFlood flood-opacity="0" result="BackgroundImageFix"/>
<feColorMatrix in="SourceAlpha" type="matrix" values="0 0 0 0 0 0 0 0 0 0 0 0 0 0 0 0 0 0 127 0" result="hardAlpha"/>
<feOffset dy="1.95795"/>
<feGaussianBlur stdDeviation="4.55224"/>
<feComposite in2="hardAlpha" operator="out"/>
<feColorMatrix type="matrix" values="0 0 0 0 0 0 0 0 0 0 0 0 0 0 0 0 0 0 0.25 0"/>
<feBlend mode="normal" in2="BackgroundImageFix" result="effect1_dropShadow_182_151"/>
<feBlend mode="normal" in="SourceGraphic" in2="effect1_dropShadow_182_151" result="shape"/>
</filter>
<filter id="filter2_d_182_151" x="-47.6055" y="630.53" width="214.389" height="89.9172" filterUnits="userSpaceOnUse" color-interpolation-filters="sRGB">
<feFlood flood-opacity="0" result="BackgroundImageFix"/>
<feColorMatrix in="SourceAlpha" type="matrix" values="0 0 0 0 0 0 0 0 0 0 0 0 0 0 0 0 0 0 127 0" result="hardAlpha"/>
<feOffset dy="1.95795"/>
<feGaussianBlur stdDeviation="4.55224"/>
<feComposite in2="hardAlpha" operator="out"/>
<feColorMatrix type="matrix" values="0 0 0 0 0 0 0 0 0 0 0 0 0 0 0 0 0 0 0.25 0"/>
<feBlend mode="normal" in2="BackgroundImageFix" result="effect1_dropShadow_182_151"/>
<feBlend mode="normal" in="SourceGraphic" in2="effect1_dropShadow_182_151" result="shape"/>
</filter>
<filter id="filter3_d_182_151" x="-49.7031" y="576.699" width="196.936" height="106.902" filterUnits="userSpaceOnUse" color-interpolation-filters="sRGB">
<feFlood flood-opacity="0" result="BackgroundImageFix"/>
<feColorMatrix in="SourceAlpha" type="matrix" values="0 0 0 0 0 0 0 0 0 0 0 0 0 0 0 0 0 0 127 0" result="hardAlpha"/>
<feOffset dy="1.95795"/>
<feGaussianBlur stdDeviation="4.55224"/>
<feComposite in2="hardAlpha" operator="out"/>
<feColorMatrix type="matrix" values="0 0 0 0 0 0 0 0 0 0 0 0 0 0 0 0 0 0 0.25 0"/>
<feBlend mode="normal" in2="BackgroundImageFix" result="effect1_dropShadow_182_151"/>
<feBlend mode="normal" in="SourceGraphic" in2="effect1_dropShadow_182_151" result="shape"/>
</filter>
<filter id="filter4_d_182_151" x="326.282" y="577.056" width="129.779" height="88.0544" filterUnits="userSpaceOnUse" color-interpolation-filters="sRGB">
<feFlood flood-opacity="0" result="BackgroundImageFix"/>
<feColorMatrix in="SourceAlpha" type="matrix" values="0 0 0 0 0 0 0 0 0 0 0 0 0 0 0 0 0 0 127 0" result="hardAlpha"/>
<feOffset dy="1.95795"/>
<feGaussianBlur stdDeviation="4.55224"/>
<feComposite in2="hardAlpha" operator="out"/>
<feColorMatrix type="matrix" values="0 0 0 0 0 0 0 0 0 0 0 0 0 0 0 0 0 0 0.25 0"/>
<feBlend mode="normal" in2="BackgroundImageFix" result="effect1_dropShadow_182_151"/>
<feBlend mode="normal" in="SourceGraphic" in2="effect1_dropShadow_182_151" result="shape"/>
</filter>
<filter id="filter5_d_182_151" x="347.422" y="629.773" width="214.389" height="89.9172" filterUnits="userSpaceOnUse" color-interpolation-filters="sRGB">
<feFlood flood-opacity="0" result="BackgroundImageFix"/>
<feColorMatrix in="SourceAlpha" type="matrix" values="0 0 0 0 0 0 0 0 0 0 0 0 0 0 0 0 0 0 127 0" result="hardAlpha"/>
<feOffset dy="1.95795"/>
<feGaussianBlur stdDeviation="4.55224"/>
<feComposite in2="hardAlpha" operator="out"/>
<feColorMatrix type="matrix" values="0 0 0 0 0 0 0 0 0 0 0 0 0 0 0 0 0 0 0.25 0"/>
<feBlend mode="normal" in2="BackgroundImageFix" result="effect1_dropShadow_182_151"/>
<feBlend mode="normal" in="SourceGraphic" in2="effect1_dropShadow_182_151" result="shape"/>
</filter>
<filter id="filter6_d_182_151" x="204.632" y="636.131" width="214.389" height="89.9172" filterUnits="userSpaceOnUse" color-interpolation-filters="sRGB">
<feFlood flood-opacity="0" result="BackgroundImageFix"/>
<feColorMatrix in="SourceAlpha" type="matrix" values="0 0 0 0 0 0 0 0 0 0 0 0 0 0 0 0 0 0 127 0" result="hardAlpha"/>
<feOffset dy="1.95795"/>
<feGaussianBlur stdDeviation="4.55224"/>
<feComposite in2="hardAlpha" operator="out"/>
<feColorMatrix type="matrix" values="0 0 0 0 0 0 0 0 0 0 0 0 0 0 0 0 0 0 0.25 0"/>
<feBlend mode="normal" in2="BackgroundImageFix" result="effect1_dropShadow_182_151"/>
<feBlend mode="normal" in="SourceGraphic" in2="effect1_dropShadow_182_151" result="shape"/>
</filter>
<filter id="filter7_d_182_151" x="202.534" y="582.301" width="196.936" height="106.902" filterUnits="userSpaceOnUse" color-interpolation-filters="sRGB">
<feFlood flood-opacity="0" result="BackgroundImageFix"/>
<feColorMatrix in="SourceAlpha" type="matrix" values="0 0 0 0 0 0 0 0 0 0 0 0 0 0 0 0 0 0 127 0" result="hardAlpha"/>
<feOffset dy="1.95795"/>
<feGaussianBlur stdDeviation="4.55224"/>
<feComposite in2="hardAlpha" operator="out"/>
<feColorMatrix type="matrix" values="0 0 0 0 0 0 0 0 0 0 0 0 0 0 0 0 0 0 0.25 0"/>
<feBlend mode="normal" in2="BackgroundImageFix" result="effect1_dropShadow_182_151"/>
<feBlend mode="normal" in="SourceGraphic" in2="effect1_dropShadow_182_151" result="shape"/>
</filter>
<clipPath id="clip0_182_151">
<rect width="533" height="722" fill="white"/>
</clipPath>
</defs>
</svg>
