<svg width="917" height="672" viewBox="0 0 917 672" fill="none" xmlns="http://www.w3.org/2000/svg">
<g clip-path="url(#clip0_62_4)">
<path d="M-100.7 455.529L-30.252 55.9975L89.9216 77.1874C131.638 84.543 159.318 90.8637 172.964 96.1493C186.61 101.435 197.792 109.976 206.51 121.771C215.259 133.392 221.268 148.309 224.535 166.523C228.008 184.592 228.067 203.14 224.712 222.165C217.633 262.31 202.098 290.706 178.106 307.352C198.987 361.426 205.28 428.314 196.985 508.019L72.0985 485.998L72.7448 482.332C81.0237 435.38 82.8821 398.814 78.3199 372.633C73.7577 346.453 63.3603 331.932 47.1277 329.07L45.5568 328.793L19.4734 476.719L-100.7 455.529ZM77.5202 159.767L75.4257 159.398L61.8531 236.372L64.9949 236.926C76.6894 238.988 85.7087 237.338 92.053 231.978C98.3973 226.618 102.785 217.043 105.216 203.254C109.618 178.294 100.385 163.799 77.5202 159.767Z" fill="black"/>
<path d="M-40.7277 466.618L15.0226 150.442L18.9225 128.325L172.638 155.429L161.378 219.285L151.752 273.88L136.907 271.263L91.4149 263.241L154.741 501.084L-40.7277 466.618Z" fill="black"/>
<rect x="91.5847" y="146.661" width="39.5979" height="40.5879" transform="rotate(10 91.5847 146.661)" stroke="black" stroke-width="10.8894"/>
<rect x="77.8321" y="224.655" width="40.5879" height="83.1556" transform="rotate(-80 77.8321 224.655)" stroke="black" stroke-width="10.8894"/>
<rect x="131.555" y="153.712" width="39.5979" height="40.5879" transform="rotate(10 131.555 153.712)" stroke="black" stroke-width="10.8894"/>
<rect x="53.5653" y="139.956" width="36.6281" height="63.3566" transform="rotate(10 53.5653 139.956)" stroke="black" stroke-width="10.8894"/>
<rect x="13.5945" y="132.909" width="38.608" height="63.3566" transform="rotate(10 13.5945 132.909)" stroke="black" stroke-width="10.8894"/>
<path d="M255.645 231.295L226.47 207.888C224.122 206.005 220.615 207.325 220.092 210.289L214.703 240.851C214.217 243.607 216.665 245.983 219.405 245.416L253.969 238.261C257.249 237.582 258.257 233.391 255.645 231.295Z" fill="black" stroke="black" stroke-width="0.989947"/>
<path d="M150.135 34.2684C143.453 40.4927 124.794 45.8125 111.075 48.8488C107.633 49.6105 106.754 54.0133 109.863 55.6752C132.979 68.0319 170.266 76.0127 179.756 62.3141C190.468 46.8513 170.599 15.2052 150.135 34.2684Z" fill="black" stroke="black" stroke-width="0.989947"/>
<path d="M-38.3328 635.623L32.1153 236.092L152.289 257.282C194.005 264.638 221.686 270.958 235.331 276.244C248.977 281.53 260.159 290.07 268.877 301.866C277.626 313.487 283.635 328.404 286.902 346.617C290.375 364.687 290.434 383.234 287.079 402.26C280.001 442.405 264.465 470.8 240.474 487.447C261.354 541.52 267.647 608.409 259.352 688.113L134.466 666.092L135.112 662.427C143.391 615.475 145.249 578.908 140.687 552.728C136.125 526.548 125.728 512.026 109.495 509.164L107.924 508.887L81.8407 656.813L-38.3328 635.623ZM139.888 339.862L137.793 339.492L124.22 416.466L127.362 417.02C139.057 419.082 148.076 417.433 154.42 412.073C160.765 406.713 165.152 397.138 167.584 383.349C171.985 358.389 162.753 343.893 139.888 339.862Z" fill="black"/>
<path d="M21.6435 646.703L77.3938 330.527L81.2937 308.41L235.009 335.514L223.75 399.371L214.123 453.966L199.278 451.348L153.786 443.327L217.113 681.17L21.6435 646.703Z" fill="black"/>
<rect x="153.954" y="326.754" width="39.5979" height="40.5878" transform="rotate(10 153.954 326.754)" stroke="black" stroke-width="10.8894"/>
<rect x="140.199" y="404.748" width="40.5878" height="83.1556" transform="rotate(-80 140.199 404.748)" stroke="black" stroke-width="10.8894"/>
<rect x="193.922" y="333.801" width="39.5979" height="40.5878" transform="rotate(10 193.922 333.801)" stroke="black" stroke-width="10.8894"/>
<rect x="115.931" y="320.047" width="36.6281" height="63.3566" transform="rotate(10 115.931 320.047)" stroke="black" stroke-width="10.8894"/>
<rect x="75.9607" y="313" width="38.6079" height="63.3566" transform="rotate(10 75.9607 313)" stroke="black" stroke-width="10.8894"/>
<path d="M318.01 411.39L288.835 387.983C286.488 386.1 282.98 387.42 282.458 390.384L277.069 420.946C276.583 423.702 279.031 426.078 281.771 425.511L316.335 418.356C319.615 417.677 320.623 413.486 318.01 411.39Z" fill="black" stroke="black" stroke-width="0.989947"/>
<path d="M175.631 212.8C168.949 219.024 150.291 224.344 136.571 227.38C133.13 228.142 132.251 232.545 135.359 234.206C158.475 246.563 195.762 254.544 205.252 240.845C215.964 225.383 196.095 193.736 175.631 212.8Z" fill="black" stroke="black" stroke-width="0.989947"/>
<path d="M234.989 369.189L184.002 342.418C182.063 354.442 185.766 367.631 196.871 371.855C215.593 378.974 234.989 369.189 234.989 369.189Z" fill="#D1293C" stroke="black" stroke-width="0.623912"/>
<path d="M35.4951 831.49L105.943 431.959L226.117 453.149C267.833 460.504 295.514 466.825 309.159 472.11C322.805 477.396 333.987 485.937 342.705 497.732C351.454 509.353 357.463 524.271 360.73 542.484C364.203 560.553 364.262 579.101 360.907 598.126C353.829 638.271 338.293 666.667 314.302 683.313C335.182 737.387 341.475 804.276 333.18 883.98L208.294 861.959L208.94 858.293C217.219 811.341 219.077 774.775 214.515 748.595C209.953 722.414 199.555 707.893 183.323 705.031L181.752 704.754L155.669 852.68L35.4951 831.49ZM213.715 535.728L211.621 535.359L198.048 612.333L201.19 612.887C212.885 614.949 221.904 613.3 228.248 607.939C234.592 602.579 238.98 593.004 241.412 579.215C245.813 554.256 236.581 539.76 213.715 535.728Z" fill="black"/>
<path d="M95.4453 842.567L151.196 526.391L155.095 504.274L308.811 531.378L297.551 595.235L287.925 649.829L273.08 647.212L227.588 639.19L290.914 877.033L95.4453 842.567Z" fill="black"/>
<rect x="227.754" y="522.613" width="39.5979" height="40.5878" transform="rotate(10 227.754 522.613)" stroke="black" stroke-width="10.8894"/>
<rect x="214.002" y="600.612" width="40.5878" height="83.1556" transform="rotate(-80 214.002 600.612)" stroke="black" stroke-width="10.8894"/>
<rect x="267.726" y="529.66" width="39.5979" height="40.5878" transform="rotate(10 267.726 529.66)" stroke="black" stroke-width="10.8894"/>
<rect x="189.734" y="515.908" width="36.6281" height="63.3566" transform="rotate(10 189.734 515.908)" stroke="black" stroke-width="10.8894"/>
<rect x="149.761" y="508.864" width="38.6079" height="63.3566" transform="rotate(10 149.761 508.864)" stroke="black" stroke-width="10.8894"/>
<path d="M391.811 607.253L362.636 583.846C360.289 581.962 356.781 583.283 356.259 586.247L350.87 616.808C350.384 619.564 352.832 621.941 355.572 621.374L390.136 614.219C393.416 613.54 394.424 609.349 391.811 607.253Z" fill="black" stroke="black" stroke-width="0.989947"/>
<rect width="125.735" height="267.729" transform="matrix(-1 0 0 1 109.476 513.78)" fill="black"/>
<path d="M168.864 168.487L117.877 141.715C115.938 153.739 119.641 166.929 130.746 171.152C149.468 178.272 168.864 168.487 168.864 168.487Z" fill="#D1293C" stroke="black" stroke-width="0.623912"/>
<path d="M307.989 550.189L257.002 523.418C255.063 535.442 258.766 548.631 269.871 552.855C288.593 559.974 307.989 550.189 307.989 550.189Z" fill="#D1293C" stroke="black" stroke-width="0.623912"/>
<path d="M1019.62 455.49L949.176 55.9587L829.003 77.1486C787.287 84.5042 759.606 90.8249 745.96 96.1105C732.315 101.396 721.133 109.937 712.414 121.732C703.665 133.353 697.657 148.271 694.389 166.484C690.917 184.553 690.858 203.101 694.212 222.126C701.291 262.271 716.826 290.667 740.818 307.313C719.937 361.387 713.645 428.276 721.94 507.98L846.826 485.959L846.18 482.294C837.901 435.341 836.042 398.775 840.604 372.595C845.167 346.414 855.564 331.893 871.797 329.031L873.368 328.754L899.451 476.68L1019.62 455.49ZM841.404 159.728L843.499 159.359L857.071 236.333L853.929 236.887C842.235 238.949 833.216 237.3 826.871 231.939C820.527 226.579 816.139 217.004 813.708 203.215C809.307 178.256 818.539 163.76 841.404 159.728Z" fill="black"/>
<path d="M959.652 466.579L903.902 150.403L900.002 128.286L746.286 155.39L757.546 219.247L767.172 273.841L782.017 271.224L827.509 263.202L764.183 501.045L959.652 466.579Z" fill="black"/>
<rect x="-4.41653" y="6.30746" width="39.5979" height="40.5878" transform="matrix(-0.984808 0.173648 0.173648 0.984808 821.895 141.178)" stroke="black" stroke-width="10.8894"/>
<rect x="-6.30746" y="-4.41653" width="40.5878" height="83.1556" transform="matrix(-0.173648 -0.984808 -0.984808 0.173648 835.647 219.171)" stroke="black" stroke-width="10.8894"/>
<rect x="-4.41653" y="6.30746" width="39.5979" height="40.5878" transform="matrix(-0.984808 0.173648 0.173648 0.984808 781.924 148.229)" stroke="black" stroke-width="10.8894"/>
<rect x="-4.41653" y="6.30746" width="36.6281" height="63.3566" transform="matrix(-0.984808 0.173648 0.173648 0.984808 859.914 134.472)" stroke="black" stroke-width="10.8894"/>
<rect x="-4.41653" y="6.30746" width="38.6079" height="63.3566" transform="matrix(-0.984808 0.173648 0.173648 0.984808 899.885 127.426)" stroke="black" stroke-width="10.8894"/>
<path d="M663.28 231.256L692.455 207.85C694.802 205.966 698.31 207.287 698.832 210.251L704.221 240.812C704.707 243.568 702.259 245.945 699.519 245.377L664.955 238.223C661.675 237.544 660.667 233.352 663.28 231.256Z" fill="black" stroke="black" stroke-width="0.989947"/>
<path d="M768.789 34.2296C775.471 40.4538 794.13 45.7736 807.849 48.8099C811.291 49.5717 812.17 53.9745 809.061 55.6363C785.946 67.993 748.658 75.9739 739.168 62.2753C728.456 46.8125 748.325 15.1664 768.789 34.2296Z" fill="black" stroke="black" stroke-width="0.989947"/>
<path d="M957.257 635.585L886.809 236.053L766.636 257.243C724.92 264.599 697.239 270.92 683.593 276.205C669.947 281.491 658.765 290.031 650.047 301.827C641.298 313.448 635.29 328.365 632.022 346.579C628.549 364.648 628.49 383.195 631.845 402.221C638.924 442.366 654.459 470.762 678.451 487.408C657.57 541.481 651.278 608.37 659.572 688.074L784.459 666.054L783.812 662.388C775.533 615.436 773.675 578.87 778.237 552.689C782.799 526.509 793.197 511.988 809.429 509.125L811 508.848L837.084 656.774L957.257 635.585ZM779.037 339.823L781.131 339.453L794.704 416.427L791.562 416.981C779.868 419.043 770.848 417.394 764.504 412.034C758.16 406.674 753.772 397.099 751.341 383.31C746.94 358.35 756.172 343.855 779.037 339.823Z" fill="black"/>
<path d="M897.281 646.664L841.53 330.489L837.631 308.371L683.915 335.476L695.175 399.332L704.801 453.927L719.646 451.309L765.138 443.288L701.812 681.131L897.281 646.664Z" fill="black"/>
<rect x="-4.41653" y="6.30746" width="39.5979" height="40.5878" transform="matrix(-0.984808 0.173648 0.173648 0.984808 759.525 321.27)" stroke="black" stroke-width="10.8894"/>
<rect x="-6.30746" y="-4.41653" width="40.5878" height="83.1556" transform="matrix(-0.173648 -0.984808 -0.984808 0.173648 773.281 399.264)" stroke="black" stroke-width="10.8894"/>
<rect x="-4.41653" y="6.30746" width="39.5979" height="40.5878" transform="matrix(-0.984808 0.173648 0.173648 0.984808 719.558 328.317)" stroke="black" stroke-width="10.8894"/>
<rect x="-4.41653" y="6.30746" width="36.6281" height="63.3566" transform="matrix(-0.984808 0.173648 0.173648 0.984808 797.549 314.564)" stroke="black" stroke-width="10.8894"/>
<rect x="-4.41653" y="6.30746" width="38.6079" height="63.3566" transform="matrix(-0.984808 0.173648 0.173648 0.984808 837.519 307.517)" stroke="black" stroke-width="10.8894"/>
<path d="M600.914 411.351L630.089 387.945C632.436 386.061 635.944 387.382 636.466 390.346L641.855 420.907C642.341 423.663 639.893 426.039 637.153 425.472L602.589 418.318C599.309 417.639 598.301 413.447 600.914 411.351Z" fill="black" stroke="black" stroke-width="0.989947"/>
<path d="M743.294 212.761C749.975 218.985 768.634 224.305 782.353 227.341C785.795 228.103 786.674 232.506 783.565 234.168C760.45 246.524 723.163 254.505 713.672 240.807C702.96 225.344 722.83 193.698 743.294 212.761Z" fill="black" stroke="black" stroke-width="0.989947"/>
<path d="M683.935 369.15L734.923 342.379C736.862 354.403 733.159 367.593 722.053 371.816C703.331 378.936 683.935 369.15 683.935 369.15Z" fill="#D1293C" stroke="black" stroke-width="0.623912"/>
<path d="M883.429 831.451L812.981 431.92L692.808 453.11C651.092 460.465 623.411 466.786 609.765 472.072C596.12 477.357 584.938 485.898 576.219 497.693C567.47 509.315 561.462 524.232 558.194 542.445C554.722 560.515 554.663 579.062 558.017 598.087C565.096 638.232 580.631 666.628 604.623 683.274C583.742 737.348 577.45 804.237 585.745 883.941L710.631 861.92L709.984 858.255C701.706 811.302 699.847 774.736 704.409 748.556C708.972 722.375 719.369 707.854 735.602 704.992L737.172 704.715L763.256 852.641L883.429 831.451ZM705.209 535.689L707.304 535.32L720.876 612.294L717.734 612.848C706.04 614.91 697.021 613.261 690.676 607.9C684.332 602.54 679.944 592.966 677.513 579.177C673.112 554.217 682.344 539.721 705.209 535.689Z" fill="black"/>
<path d="M823.479 842.528L767.729 526.352L763.829 504.235L610.113 531.339L621.373 595.196L631 649.791L645.844 647.173L691.336 639.152L628.01 876.995L823.479 842.528Z" fill="black"/>
<rect x="-4.41653" y="6.30746" width="39.5979" height="40.5878" transform="matrix(-0.984808 0.173648 0.173648 0.984808 685.726 517.129)" stroke="black" stroke-width="10.8894"/>
<rect x="-6.30746" y="-4.41653" width="40.5878" height="83.1556" transform="matrix(-0.173648 -0.984808 -0.984808 0.173648 699.478 595.129)" stroke="black" stroke-width="10.8894"/>
<rect x="-4.41653" y="6.30746" width="39.5979" height="40.5878" transform="matrix(-0.984808 0.173648 0.173648 0.984808 645.754 524.176)" stroke="black" stroke-width="10.8894"/>
<rect x="-4.41653" y="6.30746" width="36.6281" height="63.3566" transform="matrix(-0.984808 0.173648 0.173648 0.984808 723.746 510.425)" stroke="black" stroke-width="10.8894"/>
<rect x="-4.41653" y="6.30746" width="38.6079" height="63.3566" transform="matrix(-0.984808 0.173648 0.173648 0.984808 763.718 503.38)" stroke="black" stroke-width="10.8894"/>
<path d="M527.113 607.214L556.288 583.807C558.636 581.924 562.143 583.244 562.666 586.208L568.055 616.77C568.54 619.525 566.092 621.902 563.352 621.335L528.788 614.18C525.509 613.501 524.501 609.31 527.113 607.214Z" fill="black" stroke="black" stroke-width="0.989947"/>
<rect x="809.448" y="513.741" width="125.735" height="267.729" fill="black"/>
<path d="M750.06 168.448L801.047 141.676C802.987 153.701 799.284 166.89 788.178 171.113C769.456 178.233 750.06 168.448 750.06 168.448Z" fill="#D1293C" stroke="black" stroke-width="0.623912"/>
<path d="M610.935 550.15L661.922 523.379C663.862 535.403 660.159 548.593 649.053 552.816C630.331 559.936 610.935 550.15 610.935 550.15Z" fill="#D1293C" stroke="black" stroke-width="0.623912"/>
</g>
<defs>
<clipPath id="clip0_62_4">
<rect width="917" height="672" fill="white"/>
</clipPath>
</defs>
</svg>
