<svg width="331" height="372" viewBox="0 0 331 372" fill="none" xmlns="http://www.w3.org/2000/svg">
<path d="M-158.542 394.744L182.099 51.686L191.498 42.7825L311.53 137.888L273.101 182.581L237.978 224.439L226.596 214.889L191.717 185.622L-8.18306 523.658L-158.542 394.744Z" fill="white"/>
<path d="M309.068 144.881L267.316 194.948L263.94 198.831L252.04 212.52C243.139 221.61 236.12 228.458 224.16 218.422L198.468 196.416" stroke="black" stroke-width="7.84101"/>
<rect x="199.099" y="147.472" width="41.4283" height="82.0189" rx="10.0463" transform="rotate(-50 199.099 147.472)" stroke="black" stroke-width="9.3112"/>
<rect x="281.988" y="112.368" width="41.2214" height="38.501" rx="10.0463" transform="rotate(40 281.988 112.368)" stroke="black" stroke-width="9.3112"/>
<rect x="250.512" y="85.6577" width="41.3347" height="38.501" rx="10.0463" transform="rotate(40 250.512 85.6577)" stroke="black" stroke-width="9.3112"/>
<rect x="218.709" y="61.0913" width="39.8876" height="61.5201" rx="10.0463" transform="rotate(40 218.709 61.0913)" stroke="black" stroke-width="9.3112"/>
<path d="M196.852 44.8056L209.765 55.6407C214.015 59.2072 214.569 65.5441 211.002 69.7944L184.701 101.139C181.134 105.39 174.798 105.944 170.548 102.378L157.636 91.5438C153.381 87.9734 152.83 81.6276 156.407 77.3782L168.777 62.6856L168.786 62.6744L182.689 46.0558C186.253 41.7957 192.597 41.2355 196.852 44.8056Z" stroke="black" stroke-width="9.3112"/>
<rect x="239.253" y="225.126" width="2.94038" height="3.43044" transform="rotate(131 239.253 225.126)" fill="black"/>
<path d="M-27.9394 551.389L191.689 185.559L201.064 193.424L-17.8103 557.475L-27.9394 551.389Z" fill="black"/>
<path d="M-206.54 444.767L168.138 56.1767L192.406 42.4504L-201.142 449.981L-206.54 444.767Z" fill="black"/>
</svg>
